<svg xmlns="http://www.w3.org/2000/svg"
     width="16"
     height="16"
     fill="currentColor"
     class="bi bi-bug"
     viewBox="0 0 16 16">
  <path d="M4.355.522a.5.5 0 0 1 .623.333l.291.956A4.98 4.98 0 0 1 8 1c1.007 0 1.946.298 2.731.811l.29-.956a.5.5 0 1 1 .957.29l-.41 1.352A4.985 4.985 0 0 1 13 6h.5a.5.5 0 0 0 .5-.5V5a.5.5 0 0 1 1 0v.5A1.5 1.5 0 0 1 13.5 7H13v1h1.5a.5.5 0 0 1 0 1H13v1h.5a1.5 1.5 0 0 1 1.5 1.5v.5a.5.5 0 1 1-1 0v-.5a.5.5 0 0 0-.5-.5H13a5 5 0 0 1-10 0H2.5a.5.5 0 0 0-.5.5v.5a.5.5 0 1 1-1 0v-.5A1.5 1.5 0 0 1 2.5 10H3V9H1.5a.5.5 0 0 1 0-1H3V7h-.5A1.5 1.5 0 0 1 1 5.5V5a.5.5 0 0 1 1 0v.5a.5.5 0 0 0 .5.5H3a4.985 4.985 0 0 1 1.432-3.503L4.02.855a.5.5 0 0 1 .334-.333zM5.5 6.6V12a4 4 0 0 0 3 3.865zM7 15.949A4 4 0 0 0 10 12V6.6L7 7.5zM4 12a4 4 0 0 0 .08.769l3.42-.956V7.5L4.02 6.6A4 4 0 0 0 4 7zm4.5 3.949V11.04l3.42.956A4.002 4.002 0 0 0 8.5 15.95z"/>
</svg>
