<svg xmlns="http://www.w3.org/2000/svg" viewBox="0 0 24 24" width="24" height="24">
  <path fill="currentColor" d="M16,2H8C6.34,2,5,3.34,5,5v14c0,1.66,1.34,3,3,3h8c1.66,0,3-1.34,3-3V5C19,3.34,17.66,2,16,2z M10,7c0.55,0,1,0.45,1,1s-0.45,1-1,1S9,8.55,9,8S9.45,7,10,7z M14,7c0.55,0,1,0.45,1,1s-0.45,1-1,1s-1-0.45-1-1S13.45,7,14,7z M12,12c0.55,0,1,0.45,1,1s-0.45,1-1,1s-1-0.45-1-1S11.55,12,12,12z M10,17c0.55,0,1,0.45,1,1s-0.45,1-1,1s-1-0.45-1-1S9.45,17,10,17z M14,17c0.55,0,1,0.45,1,1s-0.45,1-1,1s-1-0.45-1-1S13.45,17,14,17z"/>
</svg>
